# xmcd
#
# Track frame offsets: 
#        150
#        14719
#        26616
#        42501
#        55426
#        68458
#        82632
#        100651
#        111524
#        127148
#        142346
#        155729
#        170954
#        185567
#        202331
#        218763
#        235723
#        250772
#        265441
#        281223
#        296767
#        314297
#        332284
#
# Disc length: 4643 seconds
#
# Revision: 0
# Processed by: cddbd v1.5.2PL0 Copyright (c) Steve Scherf et al.
# Submitted via: ExactAudioCopy v0.99pb4
#
DISCID=6d122117
DTITLE=Various Artist - MNM Big Hits 2015 Best Of - CD 2
DYEAR=2015
DGENRE=Top 40
TTITLE0=Matt Simons - Catch and Release (Deepend Remix)
TTITLE1=Lost Frequencies Feat. Janieck Devy - Reality
TTITLE2=Calvin Harris and Disciples - How Deep Is Your Love
TTITLE3=Loïc Nottet - Rhythm Inside
TTITLE4=Dimitri Vegas and Like Mike Feat. Ne-Yo - Higher Place
TTITLE5=Måns Zelmerlöw - Heroes
TTITLE6=Raving George Feat. Oscar And The Wolf - You're Mine
TTITLE7=Lil Kleine and Ronnie Flex - Drank and Drugs
TTITLE8=Dotan - Hungry
TTITLE9=Broiler Feat. Ravvel - Wild Eyes
TTITLE10=Alvaro Soler - El Mismo Sol
TTITLE11=David Guetta Feat. Sam Martin - Dangerous
TTITLE12=Gavin James - The Book Of Love (Live At Whelans)
TTITLE13=Fifth Harmony Feat. Kid Ink - Worth It
TTITLE14=Robin Schulz Feat. Francesco Yates - Sugar
TTITLE15=Galantis - Runaway (U and I)
TTITLE16=Tourist LeMC - Koning Liefde
TTITLE17=Emma Bale - Run (Lost Frequencies Remix)
TTITLE18=Kygo Feat. Parson James - Stole The Show
TTITLE19=Sam Feldt Feat. Kimberly Anne - Show Me Love
TTITLE20=Florence and The Machine - Ship To Wreck
TTITLE21=Felix Jaehn Feat. Jasmine Thompson - Ain't Nobody (Loves Me B
TTITLE21=etter)
TTITLE22=Years and Years - King
EXTD=
EXTT0=
EXTT1=
EXTT2=
EXTT3=
EXTT4=
EXTT5=
EXTT6=
EXTT7=
EXTT8=
EXTT9=
EXTT10=
EXTT11=
EXTT12=
EXTT13=
EXTT14=
EXTT15=
EXTT16=
EXTT17=
EXTT18=
EXTT19=
EXTT20=
EXTT21=
EXTT22=
PLAYORDER=
